<?xml version="1.0" standalone="no"?>
<!DOCTYPE svg PUBLIC "-//W3C//DTD SVG 1.1//EN" "http://www.w3.org/Graphics/SVG/1.1/DTD/svg11.dtd" >
<svg xmlns="http://www.w3.org/2000/svg" xmlns:xlink="http://www.w3.org/1999/xlink" version="1.1">
<metadata>
Created by FontForge 20161013 at Fri Jan  1 02:30:17 1904
 By ,,,
Allen R. Walden's Friendly Fonts (Unprotected. Please distribute freely.)
</metadata>
<defs>
<font id="CrystalItalic" horiz-adv-x="2048" >
  <font-face 
    font-family="Crystal"
    font-weight="400"
    font-style="italic"
    font-stretch="normal"
    units-per-em="4096"
    panose-1="2 11 114 0 0 0 0 0 0 0"
    ascent="3276"
    descent="-820"
    cap-height="2949"
    bbox="-295 -578 3568 3502"
    underline-thickness="20"
    underline-position="-185"
    unicode-range="U+0020-00D5"
  />
<missing-glyph horiz-adv-x="3072" 
d="M512 0v2560h2048v-2560h-2048zM2494 66v2428h-1916v-2428h1916z" />
    <glyph glyph-name=".notdef" horiz-adv-x="3072" 
d="M512 0v2560h2048v-2560h-2048zM2494 66v2428h-1916v-2428h1916z" />
    <glyph glyph-name=".null" horiz-adv-x="0" 
 />
    <glyph glyph-name="nonmarkingreturn" horiz-adv-x="1188" 
 />
    <glyph glyph-name="space" unicode=" " horiz-adv-x="1188" 
 />
    <glyph glyph-name="exclam" unicode="!" horiz-adv-x="713" 
d="M328 0h-357l90 635h357zM451 868l-320 267l205 1462l405 352z" />
    <glyph glyph-name="quotedbl" unicode="&#x22;" horiz-adv-x="1114" 
d="M737 2028h-258l82 921h258zM1163 2028h-258l82 921h258z" />
    <glyph glyph-name="numbersign" unicode="#" horiz-adv-x="2150" 
d="M733 938h-471l41 184h471l148 705h-471l36 184h476l180 873h184l-180 -873h442l180 873h185l-180 -873h471l-41 -184h-471l-148 -705h471l-41 -184h-471l-184 -872h-184l184 872h-442l-185 -872h-184zM958 1122h443l147 705h-442z" />
    <glyph glyph-name="dollar" unicode="$" horiz-adv-x="1909" 
d="M598 1724l-385 -204l139 1015l205 177l156 -177zM598 1311l-311 164l360 192h864l312 -192l-361 -164h-864zM1548 238l-151 176l119 839l380 177l-143 -1016zM791 -492l-160 168l41 279l196 143l160 -147l-41 -295zM651 0h-622l438 352h872l152 -168l-201 -184h-213
l-196 193zM782 2597l-139 180l193 172h229l176 -201l238 201h458l-188 -352h-967zM1253 2847l-147 168l37 270l200 176l156 -164l-41 -282z" />
    <glyph glyph-name="percent" unicode="%" horiz-adv-x="3658" 
d="M254 1667l-164 176l98 697l213 172l156 -177l-98 -692zM618 2597l-155 168l205 184h712l152 -184l-205 -168h-709zM1434 1667l-148 176l98 697l197 176l160 -172l-99 -697zM455 1446l-160 160l213 188h709l151 -188l-201 -160h-712zM1974 1397l-147 356l897 1196h422z
M926 0h-414l987 1311h414zM2077 246l-160 180l98 692l213 176l156 -176l-98 -696zM2441 1155l-151 188l204 168h713l152 -163l-209 -193h-709zM3260 250l-147 176l94 692l201 180l160 -176l-99 -696zM2277 0l-155 184l209 168h708l156 -168l-205 -184h-713z" />
    <glyph glyph-name="ampersand" unicode="&#x26;" horiz-adv-x="2380" 
d="M184 238l-155 176l143 1016l332 -177l-119 -839zM569 1724l-385 -204l144 1015l204 177l152 -177zM754 2597l-160 172l209 180h864l156 -180l-205 -172h-864zM389 0l-160 180l209 172h865l155 -172l-205 -180h-864zM1143 1311l-336 168l332 188h356l156 -192l-205 -164
h-303zM1712 1528l-147 196l53 373l205 184l155 -184l-53 -377zM1925 1311l-160 159l217 197h168l320 -192l-324 -164h-221zM1528 242l-152 172l119 835l201 164l159 -168l-118 -835z" />
    <glyph glyph-name="quotesingle" unicode="'" horiz-adv-x="688" 
d="M737 2028h-258l82 921h258z" />
    <glyph glyph-name="parenleft" unicode="(" horiz-adv-x="1061" 
d="M184 238l-155 176l143 1016l332 -177l-119 -839zM569 1724l-385 -204l144 1015l204 177l152 -177zM754 2597l-160 172l209 180h463l-320 -352h-192zM389 0l-160 180l209 172h193l217 -352h-459z" />
    <glyph glyph-name="parenright" unicode=")" horiz-adv-x="1073" 
d="M901 1520l-336 176l119 839l205 177l155 -177zM541 238l-156 176l115 811l389 205l-144 -1016zM270 0h-463l320 352h192l156 -172zM442 2597l-221 352h463l156 -180l-205 -172h-193z" />
    <glyph glyph-name="asterisk" unicode="*" horiz-adv-x="1487" 
d="M254 1704l-197 86l58 225l544 291l144 -119l-25 -196zM1348 1704l-476 283l29 208l184 99l455 -271l4 -213zM868 2257l-163 139l77 533l201 135l164 -139l-78 -537z" />
    <glyph glyph-name="plus" unicode="+" horiz-adv-x="1757" 
d="M610 1298h-610l213 353h451l159 -172zM1090 1298l-136 177l197 176h606l-209 -353h-458zM954 799l-376 -160l86 598l204 180l148 -180zM885 1532l-160 184l61 438l385 160l-86 -602z" />
    <glyph glyph-name="comma" unicode="," horiz-adv-x="557" 
d="M74 -385h-369l336 1020h369z" />
    <glyph glyph-name="hyphen" unicode="-" horiz-adv-x="1319" 
d="M942 885h-999l286 352h1000z" />
    <glyph glyph-name="period" unicode="." horiz-adv-x="475" 
d="M209 0h-356l90 635h356z" />
    <glyph glyph-name="slash" unicode="/" horiz-adv-x="2281" 
d="M242 0h-418l987 1311h414zM1286 1397l-147 356l901 1196h418z" />
    <glyph glyph-name="zero" unicode="0" horiz-adv-x="2060" 
d="M188 238l-155 176l143 1016l332 -177l-119 -839zM573 1724l-385 -204l144 1015l205 177l151 -177zM758 2597l-160 172l209 180h864l156 -180l-205 -172h-864zM1884 1520l-328 204l115 811l205 177l152 -177zM1528 238l-156 176l119 839l381 177l-139 -1016zM393 0
l-160 180l209 172h865l155 -172l-205 -180h-864z" />
    <glyph glyph-name="one" unicode="1" horiz-adv-x="2060" 
d="M1376 1520l-327 204l114 811l406 357zM1163 0l-307 352l127 901l381 177zM754 2597l-308 352h1074l-410 -352h-356z" />
    <glyph glyph-name="two" unicode="2" horiz-adv-x="2060" 
d="M188 238l-155 176l143 1016l332 -177l-119 -839zM1622 2597h-1282l467 352h864l156 -180zM1884 1520l-328 204l115 811l205 177l152 -177zM393 0l-160 180l209 172h938l291 -352h-1278zM578 1311l-316 164l365 192h864l307 -192l-356 -164h-864z" />
    <glyph glyph-name="three" unicode="3" horiz-adv-x="2064" 
d="M565 2597l-295 352h1209l155 -180l-204 -172h-865zM1692 1520l-328 204l115 811l204 177l152 -177zM1335 238l-155 176l118 839l381 177l-143 -1016zM1061 0h-1204l393 352h864l156 -172zM385 1311l-315 164l364 192h864l308 -192l-357 -164h-864z" />
    <glyph glyph-name="four" unicode="4" horiz-adv-x="2064" 
d="M569 1724l-385 -204l201 1429l307 -352zM1884 1520l-332 204l123 873l410 352zM1667 0l-307 352l127 901l381 177zM573 1311l-315 164l365 192h864l307 -192l-356 -164h-865z" />
    <glyph glyph-name="five" unicode="5" horiz-adv-x="2064" 
d="M582 1724l-385 -204l143 1015l205 177l151 -177zM766 2597l-160 172l209 180h1208l-393 -352h-864zM1536 238l-156 176l119 839l385 177l-143 -1016zM1266 0h-1282l393 352h938l155 -172zM586 1311l-312 164l361 192h864l307 -192l-356 -164h-864z" />
    <glyph glyph-name="six" unicode="6" horiz-adv-x="2060" 
d="M197 238l-156 176l143 1016l332 -177l-119 -839zM582 1724l-385 -204l143 1015l205 177l151 -177zM766 2597l-160 172l209 180h1204l-389 -352h-864zM1536 238l-156 176l119 839l381 177l-139 -1016zM401 0l-159 180l209 172h864l155 -172l-204 -180h-865zM586 1311
l-316 164l365 192h864l307 -192l-356 -164h-864z" />
    <glyph glyph-name="seven" unicode="7" horiz-adv-x="2064" 
d="M1700 1520l-328 204l115 811l405 357zM1487 0l-307 352l127 901l381 177zM569 2597l-307 352h1577l-405 -352h-865z" />
    <glyph glyph-name="eight" unicode="8" horiz-adv-x="2060" 
d="M188 238l-155 176l143 1016l332 -177l-119 -839zM573 1724l-385 -204l144 1015l205 177l151 -177zM758 2597l-160 172l209 180h864l156 -180l-205 -172h-864zM1884 1520l-328 204l115 811l205 177l152 -177zM1528 238l-156 176l119 839l381 177l-139 -1016zM393 0
l-160 180l209 172h865l155 -172l-205 -180h-864zM578 1311l-316 164l365 192h864l307 -192l-356 -164h-864z" />
    <glyph glyph-name="nine" unicode="9" horiz-adv-x="2060" 
d="M1876 1520l-332 176l119 839l205 177l151 -177zM1520 238l-156 176l115 811l385 205l-140 -1016zM1249 0h-1208l393 352h864l156 -172zM561 1696l-381 -176l144 1015l204 177l152 -177zM750 2597l-160 172l209 180h864l156 -180l-205 -172h-864zM569 1311l-315 164
l364 192h865l307 -192l-356 -164h-865z" />
    <glyph glyph-name="colon" unicode=":" horiz-adv-x="688" 
d="M328 0h-357l90 635h357zM512 1311h-356l86 606h356z" />
    <glyph glyph-name="semicolon" unicode=";" horiz-adv-x="725" 
d="M102 -385h-368l336 1020h368zM520 1311h-356l82 606h360z" />
    <glyph glyph-name="question" unicode="?" horiz-adv-x="1606" 
d="M504 0h-357l91 635h356zM332 2597l-156 172l209 180h860l160 -180l-209 -172h-864zM1462 1520l-327 204l114 811l205 177l152 -177zM627 831h-361l111 779l311 -340zM766 1311l-311 356h614l307 -184l-360 -172h-250z" />
    <glyph glyph-name="at" unicode="@" horiz-adv-x="3289" 
d="M2445 594q-20 -4 -65 -4q-144 0 -238 90t-94 217q0 29 4 45q-33 -86 -90 -143q-160 -172 -344 -172q-94 0 -201 49q-127 61 -200.5 204.5t-73.5 364.5q0 103 8 156l20 147q54 254 172 455q115 197 271 307q155 111 319 111q238 0 340 -221l17 -41l49 241h196l-204 -889
l-74 -364q-8 -33 -12 -78t-4 -78q0 -57 12 -102q33 -131 168 -131q28 0 61 12q70 25 115 57q41 33 139 148q70 78 135 221q62 139 95 307q28 164 28 320q0 454 -270 733q-275 274 -709 274q-45 0 -102 -4q-62 -8 -94 -12q-430 -61 -746 -410q-319 -352 -373 -856
q-4 -45 -4 -98q-4 -53 -4 -82q0 -151 29 -291q86 -442 397 -704q307 -262 713 -262q336 0 659 188l213 147q127 107 238 234l82 -127l-111 -115q-196 -192 -401 -307q-209 -119 -426 -160q-139 -28 -287 -28q-565 0 -950 401q-389 397 -389 1016q0 106 12 217
q53 467 340 827q414 525 1024 598q45 9 98 9h78q524 0 856 -328q328 -332 328 -856q0 -168 -37 -348q-82 -389 -291 -631q-192 -225 -422 -254zM1364 1192q0 -164 41 -258q65 -152 229 -152q103 0 193 82q69 66 110 131q37 66 95 205q57 135 98 328l8 37l37 180q8 45 16 94
q4 45 4 90q0 86 -24 144q-82 172 -238 172q-102 0 -204 -78q-66 -49 -132 -148q-65 -98 -127 -258q-40 -98 -57 -200q-49 -209 -49 -369z" />
    <glyph glyph-name="A" unicode="A" 
d="M377 352l-406 -352l201 1430l332 -177zM569 1724l-385 -204l193 1372l307 -357zM754 2597l-308 352h1577l-405 -352h-864zM1884 1520l-332 204l115 811l410 357zM1671 0l-311 352l127 901l385 177zM573 1311l-311 164l361 192h864l307 -192l-356 -164h-865z" />
    <glyph glyph-name="B" unicode="B" 
d="M377 414l-406 -357l193 1373l332 -177zM561 1724l-385 -204l193 1372l307 -357zM745 2597l-307 352h1221l156 -180l-205 -172h-865zM1876 1520l-332 204l115 811l205 177l155 -177zM1516 238l-156 176l119 839l385 177l-144 -1016zM1245 0h-1220l405 352h864l156 -172z
M565 1311l-311 164l360 192h865l307 -192l-356 -164h-865z" />
    <glyph glyph-name="C" unicode="C" horiz-adv-x="1819" 
d="M184 238l-155 176l143 1016l328 -205l-115 -811zM565 1696l-381 -176l144 1015l204 177l152 -177zM754 2597l-160 172l209 180h1220l-405 -352h-864zM389 0l-160 180l209 172h865l307 -352h-1221z" />
    <glyph glyph-name="D" unicode="D" 
d="M377 414l-406 -357l193 1373l332 -177zM561 1724l-385 -204l193 1372l307 -357zM745 2597l-307 352h1221l156 -180l-205 -172h-865zM1876 1520l-332 204l115 811l205 177l155 -177zM1516 238l-156 176l119 839l385 177l-144 -1016zM1245 0h-1220l405 352h864l156 -172z
" />
    <glyph glyph-name="E" unicode="E" horiz-adv-x="1810" 
d="M377 414l-406 -357l193 1373l332 -177zM561 1724l-385 -204l193 1372l307 -357zM745 2597l-307 352h1577l-405 -352h-865zM1602 0h-1577l405 352h864zM565 1311l-311 164l360 192h865l307 -192l-356 -164h-865z" />
    <glyph glyph-name="F" unicode="F" horiz-adv-x="1819" 
d="M377 352l-406 -352l201 1430l332 -177zM569 1724l-385 -204l193 1372l307 -357zM754 2597l-308 352h1577l-405 -352h-864zM573 1311l-311 164l361 192h864l307 -192l-356 -164h-865z" />
    <glyph glyph-name="G" unicode="G" horiz-adv-x="2036" 
d="M184 238l-155 176l143 1016l332 -177l-119 -839zM569 1724l-385 -204l144 1015l204 177l152 -177zM754 2597l-160 172l209 180h1204l-389 -352h-864zM1524 238l-156 176l119 839l381 177l-139 -1016zM389 0l-160 180l209 172h865l155 -172l-205 -180h-864zM1110 1311
l-315 164l364 192h328l307 -192l-356 -164h-328z" />
    <glyph glyph-name="H" unicode="H" horiz-adv-x="2056" 
d="M377 352l-406 -352l201 1430l332 -177zM569 1724l-385 -204l201 1429l307 -352zM1884 1520l-332 204l123 873l410 352zM573 1311l-311 164l361 192h864l307 -192l-356 -164h-865zM1671 0l-311 352l127 901l385 177z" />
    <glyph glyph-name="I" unicode="I" horiz-adv-x="721" 
d="M549 1520l-328 204l123 873l406 352zM336 0l-307 352l127 901l381 177z" />
    <glyph glyph-name="J" unicode="J" 
d="M377 414l-406 -357l193 1373l332 -177zM1876 1520l-332 204l123 873l410 352zM1671 57l-311 357l119 839l385 177zM1602 0h-1577l405 352h864z" />
    <glyph glyph-name="K" unicode="K" horiz-adv-x="2056" 
d="M377 352l-406 -352l201 1430l332 -177zM569 1724l-385 -204l201 1429l307 -352zM1671 0l-311 352l127 901l385 177zM573 1311l-311 164l361 192h864l307 -192l-356 -164h-865zM897 1737h-254l37 254l1143 958h262l-37 -242z" />
    <glyph glyph-name="L" unicode="L" horiz-adv-x="2040" 
d="M377 414l-406 -357l193 1373l332 -177zM561 1724l-385 -204l201 1429l307 -352zM1671 57l-311 357l119 839l385 177zM1602 0h-1577l405 352h864z" />
    <glyph glyph-name="M" unicode="M" horiz-adv-x="3387" 
d="M377 352l-406 -352l201 1430l332 -177zM569 1724l-385 -204l193 1372l307 -357zM745 2597l-303 352h2925l-414 -352h-864l-201 229l-270 -229h-873zM3224 1520l-328 204l115 811l405 353zM3011 0l-308 352l123 901l385 177zM1700 1495l-160 135l131 914l201 180l151 -189
l-127 -905zM1491 0l-139 295l139 975l201 160l155 -160l-135 -975z" />
    <glyph glyph-name="N" unicode="N" 
d="M377 352l-406 -352l201 1430l332 -177zM569 1724l-385 -204l193 1372l307 -357zM754 2597l-308 352h1577l-405 -352h-864zM1884 1520l-332 204l115 811l410 357zM1671 0l-311 352l127 901l385 177z" />
    <glyph glyph-name="O" unicode="O" horiz-adv-x="2052" 
d="M184 238l-155 176l143 1016l332 -177l-119 -839zM569 1724l-385 -204l144 1015l204 177l152 -177zM754 2597l-160 172l209 180h864l156 -180l-205 -172h-864zM1880 1520l-328 204l115 811l205 177l151 -177zM1524 238l-156 176l119 839l381 177l-139 -1016zM389 0
l-160 180l209 172h865l155 -172l-205 -180h-864z" />
    <glyph glyph-name="P" unicode="P" horiz-adv-x="2056" 
d="M377 352l-406 -352l201 1430l332 -177zM569 1724l-385 -204l193 1372l307 -357zM754 2597l-308 352h1221l156 -180l-205 -172h-864zM1884 1520l-332 204l115 811l205 177l156 -177zM573 1311l-311 164l361 192h864l307 -192l-356 -164h-865z" />
    <glyph glyph-name="Q" unicode="Q" horiz-adv-x="2052" 
d="M184 238l-155 176l143 1016l332 -177l-119 -839zM569 1724l-385 -204l144 1015l204 177l152 -177zM754 2597l-160 172l209 180h864l156 -180l-205 -172h-864zM1880 1520l-328 204l115 811l205 177l151 -177zM1524 238l-156 176l119 839l381 177l-139 -1016zM389 0
l-151 193l200 159h254l316 -352h-619zM1602 -524l-799 876h491l373 -401z" />
    <glyph glyph-name="R" unicode="R" 
d="M377 414l-406 -357l193 1373l332 -177zM561 1724l-385 -204l193 1372l307 -357zM745 2597l-307 352h1221l156 -180l-205 -172h-865zM1876 1520l-332 204l115 811l205 177l155 -177zM565 1311l-311 164l360 192h865l307 -192l-356 -164h-865zM1360 410l-316 843h402
l475 -1257z" />
    <glyph glyph-name="S" unicode="S" horiz-adv-x="2056" 
d="M569 1724l-385 -204l144 1015l204 177l152 -177zM754 2597l-160 172l209 180h1282l-438 -352h-893zM1524 238l-156 176l119 839l385 177l-143 -1016zM1253 0h-1282l439 352h893l155 -172zM573 1311l-311 164l361 192h864l307 -192l-356 -164h-865z" />
    <glyph glyph-name="T" unicode="T" horiz-adv-x="1696" 
d="M639 0l-156 193l148 1056l213 189l151 -189l-147 -1056zM852 1483l-160 172l123 868l209 193l152 -193l-123 -868zM410 2597l-234 352h1757l-331 -352h-390l-172 205l-245 -205h-385z" />
    <glyph glyph-name="U" unicode="U" horiz-adv-x="2052" 
d="M184 238l-155 176l143 1016l332 -177l-119 -839zM569 1724l-385 -204l201 1429l311 -340zM1880 1520l-328 204l127 885l402 340zM1524 238l-156 176l119 839l381 177l-139 -1016zM389 0l-160 180l209 172h865l155 -172l-205 -180h-864z" />
    <glyph glyph-name="V" unicode="V" horiz-adv-x="2044" 
d="M569 1724l-385 -204l193 1372l307 -357zM1880 1520l-328 204l115 811l406 357zM774 -4l-598 1474l451 -122l254 -611zM1880 1466l-1016 -1466l107 737l426 611z" />
    <glyph glyph-name="W" unicode="W" horiz-adv-x="3396" 
d="M3224 1520l-332 176l127 901l405 352zM569 1696l-385 -176l201 1429l311 -352zM1704 1520l-156 159l140 975l217 295l139 -295l-139 -975zM1528 225l-156 189l127 905l197 135l159 -135l-126 -913zM184 229l-155 177l143 1036l328 -221l-115 -815zM385 0l-147 168
l200 184h869l200 -237l275 237h868l156 -176l-205 -176h-2216zM2875 233l-163 173l114 819l389 217l-143 -1036z" />
    <glyph glyph-name="X" unicode="X" horiz-adv-x="1802" 
d="M131 0h-250l41 299l750 1135h184l-61 -418zM684 1516l-426 1155l37 278h258l373 -1024l-62 -409h-180zM1139 1516h-189l58 409l667 1024h246l-41 -291zM1249 0l-368 1016l57 418h188l422 -1143l-41 -291h-258z" />
    <glyph glyph-name="Y" unicode="Y" 
d="M811 0l-143 205l143 1028h365l-144 -1028zM565 1311l-315 164l364 192h865l307 -192l-356 -164h-865zM561 1724l-385 -204l201 1429l307 -352zM1876 1520l-332 204l123 873l410 352z" />
    <glyph glyph-name="Z" unicode="Z" horiz-adv-x="1696" 
d="M1417 0h-1159l217 352h635zM184 0h-389l795 1352l438 82zM1061 1495l-180 373l635 1081h385zM582 2597l-303 352h1155l-201 -352h-651z" />
    <glyph glyph-name="bracketleft" unicode="[" horiz-adv-x="1094" 
d="M377 414l-406 -357l193 1373l332 -177zM561 1724l-385 -204l193 1372l307 -357zM856 0h-831l405 352h119zM745 2597l-307 352h832l-406 -352h-119z" />
    <glyph glyph-name="bracketright" unicode="]" horiz-adv-x="1122" 
d="M958 1520l-331 176l118 839l406 357zM754 57l-308 357l115 811l385 205zM688 0h-835l405 352h123zM573 2597l-307 352h836l-410 -352h-119z" />
    <glyph glyph-name="braceleft" unicode="{" horiz-adv-x="1090" 
d="M504 1184q4 33 4 45q0 106 -62 176q-61 70 -159 70l98 24q168 70 193 266l167 1373q33 270 349 270h266l-17 -152h-49q-147 0 -196 -45q-54 -49 -74 -205l-147 -1212q-17 -123 -103 -213q-90 -90 -213 -106q107 -13 176 -86q66 -78 66 -193q-4 -29 -4 -41l-152 -1212
q-4 -25 -4 -45v-41q0 -99 45 -131.5t172 -32.5h45l-20 -152h-262q-291 0 -291 230q4 28 4 41z" />
    <glyph glyph-name="braceright" unicode="}" horiz-adv-x="1090" 
d="M397 -459h-266l21 152h45q147 0 200 49q49 45 70 201l147 1212q17 123 107 213q86 90 209 107q-107 12 -172 90q-70 73 -70 188q4 29 4 41l152 1212q8 74 8 91q0 94 -49 126.5t-172 32.5h-45l20 152h262q291 0 291 -230q-4 -28 -4 -40l-168 -1373q-4 -32 -4 -45
q0 -106 61 -176q62 -69 160 -69q-110 0 -192 -82t-99 -209l-168 -1372q-32 -271 -348 -271z" />
    <glyph glyph-name="cent" unicode="&#xa2;" horiz-adv-x="1835" 
d="M184 238l-155 176l143 1016l328 -205l-115 -811zM565 1696l-381 -176l144 1015l204 177l152 -177zM713 -578l-148 226l41 295l205 176l156 -180l-37 -283zM389 0l-151 172l204 180h873l307 -352h-618l-177 233l-245 -233h-193zM758 2597l-148 168l201 184h201l172 -217
l254 217h602l-406 -352h-876zM1196 2822l-147 193l45 295l200 192l156 -205l-37 -282z" />
    <glyph glyph-name="sterling" unicode="&#xa3;" horiz-adv-x="2302" 
d="M1978 0h-1634l463 352h860zM1118 2597l-155 172l208 180h1221l-410 -352h-864zM127 1311l-156 159l213 197h312l176 -201l-217 -155h-328zM725 1528l-147 172l118 835l205 185l156 -185l-119 -843zM942 1311l-160 155l217 201h492l147 -201l-196 -155h-500zM754 418
l-406 -295l156 1110l213 164l151 -164z" />
    <glyph glyph-name="bullet" unicode="&#xa5;" horiz-adv-x="1487" 
d="M926 930q-230 0 -385 160q-160 155 -160 385q0 225 159.5 384.5t385.5 159.5q229 0 389 -155q155 -160 155 -389q0 -230 -155 -385q-160 -160 -389 -160z" />
    <glyph glyph-name="registered" unicode="&#xa8;" horiz-adv-x="3236" 
d="M3031 1331q0 -586 -414 -999q-413 -414 -999 -414t-1000 414q-413 413 -413 999t413 1000q414 413 1000 413t999 -413q414 -414 414 -1000zM2867 1331q0 516 -364 885q-369 364 -889 364t-881 -364q-364 -369 -364 -889q0 -516 364 -881q365 -364 885 -364q516 0 885 369
q364 364 364 880zM1405 1343v-532q0 -66 57 -90q54 -29 135 -29v-74h-655v74q86 0 143 25q58 24 58 82v1179q0 90 -25 107q-28 16 -155 16v74h684q118 0 180 -4q61 -8 139 -37t135 -78q45 -37 74 -86q45 -78 45 -180q0 -90 -37 -168q-37 -82 -90 -127t-106 -70
q-91 -45 -181 -45l492 -630q29 -37 65 -45q33 -13 82 -13v-74h-389l-545 725h-106zM1401 2007l4 -569h65q74 0 123 8q45 4 107 24q246 82 246 291q0 33 -9 115q-8 78 -98 147q-61 50 -135 50l-217 16q-33 0 -57 -21q-29 -24 -29 -61z" />
    <glyph glyph-name="copyright" unicode="&#xa9;" horiz-adv-x="3236" 
d="M209 1352q0 585 413.5 999t999.5 414t999 -414q414 -414 414 -999q0 -586 -414 -1000q-413 -413 -999 -413t-999 413q-414 414 -414 1000zM373 1352q0 -516 368 -881q365 -369 881 -369t885 369q364 365 364 881t-364 884q-369 365 -885 365t-881 -365
q-368 -368 -368 -884zM2150 2122h78l17 -525h-82q-17 99 -78 197q-82 131 -197 180q-119 49 -217 49q-237 0 -385 -192q-168 -213 -168 -516q0 -262 131 -447q127 -184 353 -184q204 0 311 33q106 28 246 143l49 41l45 -74q-135 -139 -209 -188q-176 -115 -397 -115
q-119 0 -263 37q-249 66 -389 283q-139 213 -139 475q0 201 82 377q78 172 238 286q106 78 225 115q119 33 225 33q107 0 213 -25q123 -37 152 -41q28 -8 61 -8q86 0 98 66z" />
    <glyph glyph-name="trademark" unicode="&#xaa;" horiz-adv-x="3645" 
d="M86 2757h1298l13 -398l-74 -4q0 144 -74 225q-73 82 -241 82l-152 4v-1277q0 -66 53 -91q49 -24 152 -24v-74h-655v74q106 0 159 24q49 21 49 91v1277l-151 -4q-160 0 -238 -82q-78 -81 -78 -225l-73 4zM1516 2757h466l541 -1180l516 1180h459v-74q-102 0 -152 -12
q-49 -17 -49 -91v-1191q0 -66 54 -91q49 -24 151 -24v-74h-655v74q106 0 159 24q50 21 50 91v1134l-549 -1323h-74l-590 1258v-1069q0 -62 58 -86q53 -29 151 -29v-74h-528v74q106 0 159 24q50 21 50 91v1151q0 114 -45 131q-50 12 -127 12h-45v74z" />
    <glyph glyph-name="nonbreakingspace" unicode="&#xca;" 
 />
    <glyph glyph-name="endash" unicode="&#xd0;" horiz-adv-x="1749" 
d="M1524 1298h-1524l225 353h1524z" />
    <glyph glyph-name="emdash" unicode="&#xd1;" horiz-adv-x="1503" 
d="M1446 1004h-1475v356h1475v-356z" />
    <glyph glyph-name="quotedblleft" unicode="&#xd2;" horiz-adv-x="1217" 
d="M459 1933h-369l336 1016h369zM1081 1933h-368l340 1016h368z" />
    <glyph glyph-name="quotedblright" unicode="&#xd3;" horiz-adv-x="1217" 
d="M459 1933h-369l336 1016h369zM1081 1933h-368l340 1016h368z" />
    <glyph glyph-name="quoteleft" unicode="&#xd4;" horiz-adv-x="590" 
d="M459 1933h-369l336 1016h369z" />
    <glyph glyph-name="quoteright" unicode="&#xd5;" horiz-adv-x="590" 
d="M459 1933h-369l336 1016h369z" />
  </font>
</defs>
</svg>
