<?xml version="1.0" standalone="no"?>
<!DOCTYPE svg PUBLIC "-//W3C//DTD SVG 1.1//EN" "http://www.w3.org/Graphics/SVG/1.1/DTD/svg11.dtd" >
<svg xmlns="http://www.w3.org/2000/svg">
<metadata></metadata>
<defs>
<font id="sf_digital_readoutheavy" horiz-adv-x="751" >
<font-face units-per-em="2048" ascent="1638" descent="-410" />
<missing-glyph horiz-adv-x="500" />
<glyph horiz-adv-x="0" />
<glyph unicode="&#xd;" />
<glyph unicode=" " />
<glyph unicode="0" d="M34 113v423l62 61l-62 62v423l130 130h423l130 -130v-423l-62 -62l62 -61v-423l-130 -128h-423zM109 597l62 -61v-249l-17 -34v-144l10 10h423l10 -10v144l-17 34v249l62 61l-62 62v249l17 34v143l-10 -10h-423l-10 10v-143l17 -34v-249z" />
<glyph unicode="1" d="M580 287v249l62 61l-62 62v249l17 34v157l52 51l68 -68v-423l-62 -62l62 -61v-423l-68 -69l-52 52v157z" />
<glyph unicode="2" d="M34 113v423l130 130h159l52 -53l53 53h152v242l17 34v143l-10 -10h-423l-68 68l68 69h423l130 -130v-423l-130 -130h-159l-53 53l-52 -53h-152v-242l-17 -34v-144l10 10h423l68 -68l-68 -66h-423z" />
<glyph unicode="3" d="M96 51l68 68h423l10 -10v144l-17 34v242h-152l-53 53l-52 -53h-159l-68 68l68 69h159l52 -53l53 53h152v242l17 34v143l-10 -10h-423l-68 68l68 69h423l130 -130v-423l-62 -62l62 -61v-423l-130 -128h-423z" />
<glyph unicode="4" d="M34 659v423l68 68l52 -51v-157l17 -34v-242h152l52 -53l53 53h152v242l17 34v157l52 51l68 -68v-423l-62 -62l62 -61v-423l-68 -69l-52 52v157l-17 34v242h-152l-53 53l-52 -53h-159z" />
<glyph unicode="5" d="M34 659v423l130 130h423l68 -69l-68 -68h-423l-10 10v-143l17 -34v-242h152l52 -53l53 53h159l130 -130v-423l-130 -128h-423l-68 66l68 68h423l10 -10v144l-17 34v242h-152l-53 53l-52 -53h-159z" />
<glyph unicode="6" d="M34 113v423l62 61l-62 62v423l130 130h423l68 -69l-68 -68h-423l-10 10v-143l17 -34v-242h152l52 -53l53 53h159l130 -130v-423l-130 -128h-423zM154 109l10 10h423l10 -10v144l-17 34v242h-152l-53 53l-52 -53h-152v-242l-17 -34v-144z" />
<glyph unicode="7" d="M96 1143l68 69h423l130 -130v-423l-62 -62l62 -61v-423l-68 -69l-52 52v157l-17 34v249l62 61l-62 62v249l17 34v143l-10 -10h-423z" />
<glyph unicode="8" d="M34 113v423l62 61l-62 62v423l130 130h423l130 -130v-423l-62 -62l62 -61v-423l-130 -128h-423zM154 109l10 10h423l10 -10v144l-17 34v242h-152l-53 53l-52 -53h-152v-242l-17 -34v-144zM154 942l17 -34v-242h152l52 -53l53 53h152v242l17 34v143l-10 -10h-423l-10 10 v-143z" />
<glyph unicode="9" d="M34 659v423l130 130h423l130 -130v-423l-62 -62l62 -61v-423l-130 -128h-423l-68 66l68 68h423l10 -10v144l-17 34v242h-152l-53 53l-52 -53h-159zM154 942l17 -34v-242h152l52 -53l53 53h152v242l17 34v143l-10 -10h-423l-10 10v-143z" />
<glyph unicode="A" d="M34 113v423l62 61l-62 62v423l130 130h423l130 -130v-423l-62 -62l62 -61v-423l-68 -69l-52 52v157l-17 34v242h-152l-53 53l-52 -53h-152v-242l-17 -34v-157l-52 -52zM154 942l17 -34v-242h152l52 -53l53 53h152v242l17 34v143l-10 -10h-423l-10 10v-143z" />
<glyph unicode="B" d="M96 51l68 68h143v243l17 34v157l40 41l-4 3l4 5l-40 40v157l-17 34v242h-143l-68 68l68 69h423l130 -130v-423l-62 -62l62 -61v-423l-130 -128h-423zM427 396l17 -34v-243h143l10 -10v144l-17 34v242h-152l-1 2v-135zM427 664l1 2h152v242l17 34v143l-10 -10h-143v-242 l-17 -34v-135z" />
<glyph unicode="C" d="M34 113v423l62 61l-62 62v423l130 130h423l68 -69l-68 -68h-423l-10 10v-143l17 -34v-249l-62 -62l62 -61v-249l-17 -34v-144l10 10h423l68 -68l-68 -66h-423z" />
<glyph unicode="D" d="M96 51l68 68h143v243l17 34v157l45 44l-45 45v157l-17 34v242h-143l-68 68l68 69h423l130 -130v-423l-62 -62l62 -61v-423l-130 -128h-423zM382 597l45 -44v-157l17 -34v-243h143l10 -10v144l-17 34v249l62 61l-62 62v249l17 34v143l-10 -10h-143v-242l-17 -34v-157z" />
<glyph unicode="E" d="M34 113v423l62 61l-62 62v423l130 130h423l68 -69l-68 -68h-423l-10 10v-143l17 -34v-242h152l52 -53l53 53h159l68 -69l-68 -68h-159l-53 53l-52 -53h-152v-242l-17 -34v-144l10 10h423l68 -68l-68 -66h-423z" />
<glyph unicode="F" d="M34 113v423l62 61l-62 62v423l130 130h423l68 -69l-68 -68h-423l-10 10v-143l17 -34v-242h152l52 -53l53 53h159l68 -69l-68 -68h-159l-53 53l-52 -53h-152v-242l-17 -34v-157l-52 -52z" />
<glyph unicode="G" d="M34 113v423l62 61l-62 62v423l130 130h423l68 -69l-68 -68h-423l-10 10v-143l17 -34v-249l-62 -62l62 -61v-249l-17 -34v-144l10 10h423l10 -10v144l-17 34v242h-152l-68 68l68 69h159l130 -130v-423l-130 -128h-423z" />
<glyph unicode="H" d="M34 113v423l62 61l-62 62v423l68 68l52 -51v-157l17 -34v-242h152l52 -53l53 53h152v242l17 34v157l52 51l68 -68v-423l-62 -62l62 -61v-423l-68 -69l-52 52v157l-17 34v242h-152l-53 53l-52 -53h-152v-242l-17 -34v-157l-52 -52z" />
<glyph unicode="I" d="M307 102v260l17 34v157l45 44l-45 45v157l-17 34v259h137v-259l-17 -34v-157l-45 -45l45 -44v-157l17 -34v-260h-137z" />
<glyph unicode="J" d="M34 113v423l68 68l69 -68v-249l-17 -34v-144l10 10h423l10 -10v144l-17 34v249l62 61l-62 62v249l17 34v157l52 51l68 -68v-423l-62 -62l62 -61v-423l-130 -128h-423z" />
<glyph unicode="K" d="M34 113v423l62 61l-62 62v423l68 68l52 -51v-157l17 -34v-242h152l68 -69l-68 -68h-152v-242l-17 -34v-157l-52 -52zM410 387v202l204 -328v-201zM410 606v201l204 328v-201z" />
<glyph unicode="L" d="M34 113v423l62 61l-62 62v423l68 68l52 -51v-157l17 -34v-249l-62 -62l62 -61v-249l-17 -34v-144l10 10h423l68 -68l-68 -66h-423z" />
<glyph unicode="M" d="M34 113v423l62 61l-62 62v423l68 68l35 -34v19l204 -328v-201l-170 273v-220l-62 -62l62 -61v-249l-17 -34v-157l-52 -52zM307 102v260l17 34v157l51 51l52 -51v-157l17 -34v-260h-137zM410 606v201l204 328v-19l35 34l68 -68v-423l-62 -62l62 -61v-423l-68 -69l-52 52 v157l-17 34v249l62 61l-62 62v220z" />
<glyph unicode="N" d="M34 113v423l62 61l-62 62v423l130 130h423l130 -130v-423l-62 -62l62 -61v-423l-68 -69l-52 52v157l-17 34v249l62 61l-62 62v249l17 34v143l-10 -10h-423l-10 10v-143l17 -34v-249l-62 -62l62 -61v-249l-17 -34v-157l-52 -52z" />
<glyph unicode="O" d="M34 113v423l62 61l-62 62v423l130 130h423l130 -130v-423l-62 -62l62 -61v-423l-130 -128h-423zM109 597l62 -61v-249l-17 -34v-144l10 10h423l10 -10v144l-17 34v249l62 61l-62 62v249l17 34v143l-10 -10h-423l-10 10v-143l17 -34v-249z" />
<glyph unicode="P" d="M34 113v423l62 61l-62 62v423l130 130h423l130 -130v-423l-130 -130h-159l-53 53l-52 -53h-152v-242l-17 -34v-157l-52 -52zM154 942l17 -34v-242h152l52 -53l53 53h152v242l17 34v143l-10 -10h-423l-10 10v-143z" />
<glyph unicode="Q" d="M34 113v423l62 61l-62 62v423l130 130h423l130 -130v-423l-62 -62l62 -61v-423l-130 -128h-423zM109 597l62 -61v-249l-17 -34v-144l10 10h413l-167 268v202l170 -273v220l62 61l-62 62v249l17 34v143l-10 -10h-423l-10 10v-143l17 -34v-249z" />
<glyph unicode="R" d="M34 113v423l62 61l-62 62v423l130 130h423l130 -130v-423l-130 -130h-140l167 -268v-201l-204 327v161l-35 34l-52 -53h-152v-242l-17 -34v-157l-52 -52zM154 942l17 -34v-242h152l52 -53l53 53h152v242l17 34v143l-10 -10h-423l-10 10v-143z" />
<glyph unicode="S" d="M34 659v423l130 130h423l68 -69l-68 -68h-423l-10 10v-143l17 -34v-242h152l52 -53l53 53h159l130 -130v-423l-130 -128h-423l-68 66l68 68h423l10 -10v144l-17 34v242h-152l-53 53l-52 -53h-159z" />
<glyph unicode="T" d="M96 1143l68 69h423l68 -69l-68 -68h-143v-242l-17 -34v-157l-45 -45l45 -44v-157l17 -34v-260h-137v260l17 34v157l45 44l-45 45v157l-17 34v242h-143z" />
<glyph unicode="U" d="M34 113v423l62 61l-62 62v423l68 68l52 -51v-157l17 -34v-249l-62 -62l62 -61v-249l-17 -34v-144l10 10h423l10 -10v144l-17 34v249l62 61l-62 62v249l17 34v157l52 51l68 -68v-423l-62 -62l62 -61v-423l-130 -128h-423z" />
<glyph unicode="V" d="M137 934v201l204 -328v-201zM410 387v202l170 -273v220l62 61l-62 62v249l17 34v157l52 51l68 -68v-423l-62 -62l62 -61v-423l-68 -69l-35 35v-19z" />
<glyph unicode="W" d="M34 113v423l62 61l-62 62v423l68 68l52 -51v-157l17 -34v-249l-62 -62l62 -61v-220l170 273v-202l-204 -327v19l-35 -35zM307 833v259h137v-259l-17 -34v-157l-52 -51l-51 51v157zM410 387v202l170 -273v220l62 61l-62 62v249l17 34v157l52 51l68 -68v-423l-62 -62 l62 -61v-423l-68 -69l-35 35v-19z" />
<glyph unicode="X" d="M137 60v201l204 328v-202zM137 934v201l204 -328v-201zM410 387v202l204 -328v-201zM410 606v201l204 328v-201z" />
<glyph unicode="Y" d="M34 659v423l68 68l52 -51v-157l17 -34v-242h152l52 -53l53 53h152v242l17 34v157l52 51l68 -68v-423l-130 -130h-159l-1 2v-135l17 -34v-260h-137v260l17 34v135l-1 -2h-159z" />
<glyph unicode="Z" d="M96 51l41 41v169l204 328v-202l-167 -268h413l68 -68l-68 -66h-423zM96 1143l68 69h423l68 -69l-41 -40v-169l-204 -328v201l167 268h-413z" />
<glyph unicode="a" d="M34 113v423l62 61l-62 62v423l130 130h423l130 -130v-423l-62 -62l62 -61v-423l-68 -69l-52 52v157l-17 34v242h-152l-53 53l-52 -53h-152v-242l-17 -34v-157l-52 -52zM154 942l17 -34v-242h152l52 -53l53 53h152v242l17 34v143l-10 -10h-423l-10 10v-143z" />
<glyph unicode="b" d="M96 51l68 68h143v243l17 34v157l40 41l-4 3l4 5l-40 40v157l-17 34v242h-143l-68 68l68 69h423l130 -130v-423l-62 -62l62 -61v-423l-130 -128h-423zM427 396l17 -34v-243h143l10 -10v144l-17 34v242h-152l-1 2v-135zM427 664l1 2h152v242l17 34v143l-10 -10h-143v-242 l-17 -34v-135z" />
<glyph unicode="c" d="M34 113v423l62 61l-62 62v423l130 130h423l68 -69l-68 -68h-423l-10 10v-143l17 -34v-249l-62 -62l62 -61v-249l-17 -34v-144l10 10h423l68 -68l-68 -66h-423z" />
<glyph unicode="d" d="M96 51l68 68h143v243l17 34v157l45 44l-45 45v157l-17 34v242h-143l-68 68l68 69h423l130 -130v-423l-62 -62l62 -61v-423l-130 -128h-423zM382 597l45 -44v-157l17 -34v-243h143l10 -10v144l-17 34v249l62 61l-62 62v249l17 34v143l-10 -10h-143v-242l-17 -34v-157z" />
<glyph unicode="e" d="M34 113v423l62 61l-62 62v423l130 130h423l68 -69l-68 -68h-423l-10 10v-143l17 -34v-242h152l52 -53l53 53h159l68 -69l-68 -68h-159l-53 53l-52 -53h-152v-242l-17 -34v-144l10 10h423l68 -68l-68 -66h-423z" />
<glyph unicode="f" d="M34 113v423l62 61l-62 62v423l130 130h423l68 -69l-68 -68h-423l-10 10v-143l17 -34v-242h152l52 -53l53 53h159l68 -69l-68 -68h-159l-53 53l-52 -53h-152v-242l-17 -34v-157l-52 -52z" />
<glyph unicode="g" d="M34 113v423l62 61l-62 62v423l130 130h423l68 -69l-68 -68h-423l-10 10v-143l17 -34v-249l-62 -62l62 -61v-249l-17 -34v-144l10 10h423l10 -10v144l-17 34v242h-152l-68 68l68 69h159l130 -130v-423l-130 -128h-423z" />
<glyph unicode="h" d="M34 113v423l62 61l-62 62v423l68 68l52 -51v-157l17 -34v-242h152l52 -53l53 53h152v242l17 34v157l52 51l68 -68v-423l-62 -62l62 -61v-423l-68 -69l-52 52v157l-17 34v242h-152l-53 53l-52 -53h-152v-242l-17 -34v-157l-52 -52z" />
<glyph unicode="i" d="M307 102v260l17 34v157l45 44l-45 45v157l-17 34v259h137v-259l-17 -34v-157l-45 -45l45 -44v-157l17 -34v-260h-137z" />
<glyph unicode="j" d="M34 113v423l68 68l69 -68v-249l-17 -34v-144l10 10h423l10 -10v144l-17 34v249l62 61l-62 62v249l17 34v157l52 51l68 -68v-423l-62 -62l62 -61v-423l-130 -128h-423z" />
<glyph unicode="k" d="M34 113v423l62 61l-62 62v423l68 68l52 -51v-157l17 -34v-242h152l68 -69l-68 -68h-152v-242l-17 -34v-157l-52 -52zM410 387v202l204 -328v-201zM410 606v201l204 328v-201z" />
<glyph unicode="l" d="M34 113v423l62 61l-62 62v423l68 68l52 -51v-157l17 -34v-249l-62 -62l62 -61v-249l-17 -34v-144l10 10h423l68 -68l-68 -66h-423z" />
<glyph unicode="m" d="M34 113v423l62 61l-62 62v423l68 68l35 -34v19l204 -328v-201l-170 273v-220l-62 -62l62 -61v-249l-17 -34v-157l-52 -52zM307 102v260l17 34v157l51 51l52 -51v-157l17 -34v-260h-137zM410 606v201l204 328v-19l35 34l68 -68v-423l-62 -62l62 -61v-423l-68 -69l-52 52 v157l-17 34v249l62 61l-62 62v220z" />
<glyph unicode="n" d="M34 113v423l62 61l-62 62v423l130 130h423l130 -130v-423l-62 -62l62 -61v-423l-68 -69l-52 52v157l-17 34v249l62 61l-62 62v249l17 34v143l-10 -10h-423l-10 10v-143l17 -34v-249l-62 -62l62 -61v-249l-17 -34v-157l-52 -52z" />
<glyph unicode="o" d="M34 113v423l62 61l-62 62v423l130 130h423l130 -130v-423l-62 -62l62 -61v-423l-130 -128h-423zM109 597l62 -61v-249l-17 -34v-144l10 10h423l10 -10v144l-17 34v249l62 61l-62 62v249l17 34v143l-10 -10h-423l-10 10v-143l17 -34v-249z" />
<glyph unicode="p" d="M34 113v423l62 61l-62 62v423l130 130h423l130 -130v-423l-130 -130h-159l-53 53l-52 -53h-152v-242l-17 -34v-157l-52 -52zM154 942l17 -34v-242h152l52 -53l53 53h152v242l17 34v143l-10 -10h-423l-10 10v-143z" />
<glyph unicode="q" d="M34 113v423l62 61l-62 62v423l130 130h423l130 -130v-423l-62 -62l62 -61v-423l-130 -128h-423zM109 597l62 -61v-249l-17 -34v-144l10 10h413l-167 268v202l170 -273v220l62 61l-62 62v249l17 34v143l-10 -10h-423l-10 10v-143l17 -34v-249z" />
<glyph unicode="r" d="M34 113v423l62 61l-62 62v423l130 130h423l130 -130v-423l-130 -130h-140l167 -268v-201l-204 327v161l-35 34l-52 -53h-152v-242l-17 -34v-157l-52 -52zM154 942l17 -34v-242h152l52 -53l53 53h152v242l17 34v143l-10 -10h-423l-10 10v-143z" />
<glyph unicode="s" d="M34 659v423l130 130h423l68 -69l-68 -68h-423l-10 10v-143l17 -34v-242h152l52 -53l53 53h159l130 -130v-423l-130 -128h-423l-68 66l68 68h423l10 -10v144l-17 34v242h-152l-53 53l-52 -53h-159z" />
<glyph unicode="t" d="M96 1143l68 69h423l68 -69l-68 -68h-143v-242l-17 -34v-157l-45 -45l45 -44v-157l17 -34v-260h-137v260l17 34v157l45 44l-45 45v157l-17 34v242h-143z" />
<glyph unicode="u" d="M34 113v423l62 61l-62 62v423l68 68l52 -51v-157l17 -34v-249l-62 -62l62 -61v-249l-17 -34v-144l10 10h423l10 -10v144l-17 34v249l62 61l-62 62v249l17 34v157l52 51l68 -68v-423l-62 -62l62 -61v-423l-130 -128h-423z" />
<glyph unicode="v" d="M137 934v201l204 -328v-201zM410 387v202l170 -273v220l62 61l-62 62v249l17 34v157l52 51l68 -68v-423l-62 -62l62 -61v-423l-68 -69l-35 35v-19z" />
<glyph unicode="w" d="M34 113v423l62 61l-62 62v423l68 68l52 -51v-157l17 -34v-249l-62 -62l62 -61v-220l170 273v-202l-204 -327v19l-35 -35zM307 833v259h137v-259l-17 -34v-157l-52 -51l-51 51v157zM410 387v202l170 -273v220l62 61l-62 62v249l17 34v157l52 51l68 -68v-423l-62 -62 l62 -61v-423l-68 -69l-35 35v-19z" />
<glyph unicode="x" d="M137 60v201l204 328v-202zM137 934v201l204 -328v-201zM410 387v202l204 -328v-201zM410 606v201l204 328v-201z" />
<glyph unicode="y" d="M34 659v423l68 68l52 -51v-157l17 -34v-242h152l52 -53l53 53h152v242l17 34v157l52 51l68 -68v-423l-130 -130h-159l-1 2v-135l17 -34v-260h-137v260l17 34v135l-1 -2h-159z" />
<glyph unicode="z" d="M96 51l41 41v169l204 328v-202l-167 -268h413l68 -68l-68 -66h-423zM96 1143l68 69h423l68 -69l-41 -40v-169l-204 -328v201l167 268h-413z" />
<glyph unicode="&#xa0;" />
<glyph unicode="&#x2000;" horiz-adv-x="682" />
<glyph unicode="&#x2001;" horiz-adv-x="1365" />
<glyph unicode="&#x2002;" horiz-adv-x="682" />
<glyph unicode="&#x2003;" horiz-adv-x="1365" />
<glyph unicode="&#x2004;" horiz-adv-x="455" />
<glyph unicode="&#x2005;" horiz-adv-x="341" />
<glyph unicode="&#x2006;" horiz-adv-x="227" />
<glyph unicode="&#x2007;" horiz-adv-x="227" />
<glyph unicode="&#x2008;" horiz-adv-x="170" />
<glyph unicode="&#x2009;" horiz-adv-x="273" />
<glyph unicode="&#x200a;" horiz-adv-x="75" />
<glyph unicode="&#x202f;" horiz-adv-x="273" />
<glyph unicode="&#x205f;" horiz-adv-x="341" />
<glyph unicode="&#x25fc;" horiz-adv-x="1135" d="M0 0v1135h1135v-1135h-1135z" />
</font>
</defs>
</svg>
